# xmcd
#
# Track frame offsets: 
#        150
#        23196
#        44949
#        61504
#        83326
#        97585
#        111521
#        130256
#        145550
#        159319
#        177643
#        192262
#        208339
#        222511
#        239889
#
# Disc length: 3455 seconds
#
# Revision: 0
# Processed by: cddbd v1.5.2PL0 Copyright (c) Steve Scherf et al.
# Submitted via: ExactAudioCopy v1.3
#
DISCID=d90d7d0f
DTITLE=Blues Meets Girl - Blues Meets Girl
DYEAR=2019
DGENRE=Rockin' Blues
TTITLE0=Nightgown
TTITLE1=Listen up Boys
TTITLE2=Didn't See It Coming
TTITLE3=Grey Sky Blues
TTITLE4=Backstabber
TTITLE5=Snapshot
TTITLE6=Oh Baby
TTITLE7=Home to My Baby
TTITLE8=Swinging with Hank
TTITLE9=Fishing Blues
TTITLE10=I'm Your Handyman
TTITLE11=Shifting Gears
TTITLE12=What Did You Do
TTITLE13=Special Man
TTITLE14=Home to My Baby
EXTD=
EXTT0=
EXTT1=
EXTT2=
EXTT3=
EXTT4=
EXTT5=
EXTT6=
EXTT7=
EXTT8=
EXTT9=
EXTT10=
EXTT11=
EXTT12=
EXTT13=
EXTT14=
PLAYORDER=
